<svg width="1600" height="900" viewBox="0 0 1600 900" fill="none" xmlns="http://www.w3.org/2000/svg">
  <rect width="1600" height="900" fill="#0A0614"/>
  <circle cx="1380" cy="150" r="240" fill="#130A24" opacity=".8"/>
  <circle cx="1320" cy="120" r="130" fill="#1A0D30" opacity=".7"/>
  <rect x="80" y="100" width="620" height="700" rx="28" fill="#0C0820" stroke="#2D1F5E"/>

  <!-- 3 phones side by side -->
  <!-- Phone 1: App home screen -->
  <rect x="110" y="130" width="170" height="310" rx="28" fill="#100C20" stroke="#2D1F5E"/>
  <rect x="162" y="142" width="66" height="12" rx="6" fill="#1A1432"/>
  <rect x="122" y="162" width="146" height="260" rx="4" fill="#0E0A1E"/>
  <!-- App content phone 1 -->
  <rect x="130" y="170" width="130" height="36" rx="8" fill="#1A1432"/>
  <text x="140" y="188" fill="#C4B5FD" font-family="Segoe UI,Arial,sans-serif" font-size="9" font-weight="700">MonApp</text>
  <text x="140" y="200" fill="#7C6FA0" font-family="Segoe UI,Arial,sans-serif" font-size="7">Bonjour, Thomas 👋</text>
  <rect x="130" y="214" width="60" height="56" rx="10" fill="#1E1640"/>
  <text x="148" y="246" fill="#A78BFA" font-family="Segoe UI,Arial,sans-serif" font-size="20">📊</text>
  <rect x="200" y="214" width="60" height="56" rx="10" fill="#1E1640"/>
  <text x="218" y="246" fill="#A78BFA" font-family="Segoe UI,Arial,sans-serif" font-size="20">📋</text>
  <rect x="130" y="278" width="130" height="30" rx="6" fill="#1E1640"/>
  <text x="142" y="298" fill="#E9D5FF" font-family="Segoe UI,Arial,sans-serif" font-size="8">Chiffre d'affaires: 12 400 €</text>
  <rect x="130" y="316" width="130" height="24" rx="5" fill="#7C3AED"/>
  <text x="165" y="332" fill="#FFF" font-family="Segoe UI,Arial,sans-serif" font-size="9" font-weight="700">Nouvelle mission</text>
  <rect x="130" y="348" width="130" height="24" rx="5" fill="#1E1640"/>
  <text x="152" y="364" fill="#C4B5FD" font-family="Segoe UI,Arial,sans-serif" font-size="9">Voir le détail →</text>
  <rect x="148" y="428" width="66" height="4" rx="2" fill="#2D1F5E"/>

  <!-- Phone 2: List view -->
  <rect x="305" y="130" width="170" height="310" rx="28" fill="#100C20" stroke="#2D1F5E"/>
  <rect x="357" y="142" width="66" height="12" rx="6" fill="#1A1432"/>
  <rect x="317" y="162" width="146" height="260" rx="4" fill="#0E0A1E"/>
  <rect x="325" y="170" width="130" height="26" rx="6" fill="#1A1432"/>
  <text x="337" y="187" fill="#C4B5FD" font-family="Segoe UI,Arial,sans-serif" font-size="8" font-weight="700">Mes clients (5)</text>
  <rect x="325" y="202" width="130" height="34" rx="6" fill="#1A1432"/>
  <text x="337" y="218" fill="#E9D5FF" font-family="Segoe UI,Arial,sans-serif" font-size="8" font-weight="600">Garage Dumas</text>
  <text x="337" y="230" fill="#7C6FA0" font-family="Segoe UI,Arial,sans-serif" font-size="7">Maintenance · 450€/mois</text>
  <rect x="325" y="242" width="130" height="34" rx="6" fill="#1A1432"/>
  <text x="337" y="258" fill="#E9D5FF" font-family="Segoe UI,Arial,sans-serif" font-size="8" font-weight="600">Cabinet Martin</text>
  <text x="337" y="270" fill="#7C6FA0" font-family="Segoe UI,Arial,sans-serif" font-size="7">Site web · 1 200€</text>
  <rect x="325" y="282" width="130" height="34" rx="6" fill="#1A1432"/>
  <text x="337" y="298" fill="#E9D5FF" font-family="Segoe UI,Arial,sans-serif" font-size="8" font-weight="600">PME Roblin</text>
  <text x="337" y="310" fill="#7C6FA0" font-family="Segoe UI,Arial,sans-serif" font-size="7">Microsoft 365 · 800€</text>
  <rect x="325" y="322" width="130" height="34" rx="6" fill="#1A1432"/>
  <text x="337" y="338" fill="#E9D5FF" font-family="Segoe UI,Arial,sans-serif" font-size="8" font-weight="600">Boulangerie Petit</text>
  <text x="337" y="350" fill="#7C6FA0" font-family="Segoe UI,Arial,sans-serif" font-size="7">GLPI · 650€</text>
  <rect x="337" y="364" width="110" height="22" rx="11" fill="#7C3AED"/>
  <text x="368" y="379" fill="#FFF" font-family="Segoe UI,Arial,sans-serif" font-size="8" font-weight="700">+ Ajouter client</text>
  <rect x="343" y="428" width="66" height="4" rx="2" fill="#2D1F5E"/>

  <!-- Phone 3: Revenue / monetization -->
  <rect x="500" y="130" width="170" height="310" rx="28" fill="#100C20" stroke="#2D1F5E"/>
  <rect x="552" y="142" width="66" height="12" rx="6" fill="#1A1432"/>
  <rect x="512" y="162" width="146" height="260" rx="4" fill="#0E0A1E"/>
  <text x="524" y="184" fill="#C4B5FD" font-family="Segoe UI,Arial,sans-serif" font-size="9" font-weight="700">Revenus ce mois</text>
  <text x="524" y="206" fill="#EBCB8B" font-family="Segoe UI,Arial,sans-serif" font-size="22" font-weight="700">2 400 €</text>
  <text x="524" y="220" fill="#7C6FA0" font-family="Segoe UI,Arial,sans-serif" font-size="7">+18% vs mois dernier</text>
  <!-- Mini bar chart -->
  <rect x="524" y="236" width="16" height="30" rx="3" fill="#4C1D95" opacity=".6"/>
  <rect x="546" y="226" width="16" height="40" rx="3" fill="#5B21B6" opacity=".7"/>
  <rect x="568" y="218" width="16" height="48" rx="3" fill="#6D28D9" opacity=".8"/>
  <rect x="590" y="210" width="16" height="56" rx="3" fill="#7C3AED"/>
  <rect x="612" y="204" width="16" height="62" rx="3" fill="#8B5CF6"/>
  <rect x="524" y="300" width="130" height="26" rx="6" fill="#1A1432"/>
  <text x="536" y="316" fill="#E9D5FF" font-family="Segoe UI,Arial,sans-serif" font-size="8">Forfaits récurrents : 2/5</text>
  <rect x="524" y="332" width="130" height="26" rx="6" fill="#1A1432"/>
  <text x="536" y="348" fill="#34D399" font-family="Segoe UI,Arial,sans-serif" font-size="8">Objectif 3 000€ atteint ✓</text>
  <rect x="524" y="364" width="130" height="22" rx="11" fill="#7C3AED"/>
  <text x="548" y="379" fill="#FFF" font-family="Segoe UI,Arial,sans-serif" font-size="8" font-weight="700">Générer facture</text>
  <rect x="538" y="428" width="66" height="4" rx="2" fill="#2D1F5E"/>

  <!-- Section label above phones -->
  <text x="150" y="124" fill="#7C6FA0" font-family="Segoe UI,Arial,sans-serif" font-size="11">Dashboard</text>
  <text x="345" y="124" fill="#7C6FA0" font-family="Segoe UI,Arial,sans-serif" font-size="11">Clients</text>
  <text x="545" y="124" fill="#7C6FA0" font-family="Segoe UI,Arial,sans-serif" font-size="11">Revenus</text>

  <!-- App Store badge area -->
  <rect x="110" y="470" width="580" height="100" rx="14" fill="#100C20" stroke="#2D1F5E"/>
  <rect x="134" y="490" width="164" height="60" rx="10" fill="#1A1432" stroke="#2D1F5E"/>
  <text x="148" y="516" fill="#C4B5FD" font-family="Segoe UI,Arial,sans-serif" font-size="11" font-weight="700">App Store</text>
  <text x="148" y="532" fill="#7C6FA0" font-family="Segoe UI,Arial,sans-serif" font-size="10">iOS — Gratuit</text>
  <text x="148" y="546" fill="#A78BFA" font-family="Segoe UI,Arial,sans-serif" font-size="10">★ 4.8 · 340 avis</text>
  <rect x="318" y="490" width="164" height="60" rx="10" fill="#1A1432" stroke="#2D1F5E"/>
  <text x="332" y="516" fill="#C4B5FD" font-family="Segoe UI,Arial,sans-serif" font-size="11" font-weight="700">Google Play</text>
  <text x="332" y="532" fill="#7C6FA0" font-family="Segoe UI,Arial,sans-serif" font-size="10">Android — Freemium</text>
  <text x="332" y="546" fill="#A78BFA" font-family="Segoe UI,Arial,sans-serif" font-size="10">★ 4.6 · 220 avis</text>
  <rect x="502" y="490" width="164" height="60" rx="10" fill="#1A1432" stroke="#2D1F5E"/>
  <text x="516" y="510" fill="#EBCB8B" font-family="Segoe UI,Arial,sans-serif" font-size="11" font-weight="700">Modèle freemium</text>
  <text x="516" y="526" fill="#7C6FA0" font-family="Segoe UI,Arial,sans-serif" font-size="10">Gratuit + abonnement</text>
  <text x="516" y="542" fill="#34D399" font-family="Segoe UI,Arial,sans-serif" font-size="10">Récurrent · Scalable</text>

  <!-- Tech stack -->
  <rect x="110" y="590" width="580" height="80" rx="14" fill="#0E0A1E" stroke="#2D1F5E"/>
  <text x="134" y="616" fill="#7C6FA0" font-family="Segoe UI,Arial,sans-serif" font-size="11">Stack technique</text>
  <rect x="134" y="626" width="100" height="28" rx="8" fill="#1A1432"/>
  <text x="159" y="644" fill="#C4B5FD" font-family="Segoe UI,Arial,sans-serif" font-size="11">React Native</text>
  <rect x="248" y="626" width="88" height="28" rx="8" fill="#1A1432"/>
  <text x="265" y="644" fill="#C4B5FD" font-family="Segoe UI,Arial,sans-serif" font-size="11">Supabase</text>
  <rect x="350" y="626" width="100" height="28" rx="8" fill="#1A1432"/>
  <text x="368" y="644" fill="#C4B5FD" font-family="Segoe UI,Arial,sans-serif" font-size="11">Expo / EAS</text>
  <rect x="464" y="626" width="110" height="28" rx="8" fill="#1A1432"/>
  <text x="482" y="644" fill="#C4B5FD" font-family="Segoe UI,Arial,sans-serif" font-size="11">Stripe billing</text>

  <!-- Revenue model -->
  <rect x="110" y="690" width="580" height="86" rx="14" fill="#100C20" stroke="#2D1F5E"/>
  <text x="134" y="716" fill="#A78BFA" font-family="Segoe UI,Arial,sans-serif" font-size="13" font-weight="700">Monétisation : 3 modèles appris</text>
  <text x="134" y="738" fill="#9CA3AF" font-family="Segoe UI,Arial,sans-serif" font-size="12">Achat unique · Abonnement mensuel · Marketplace</text>
  <text x="134" y="760" fill="#EBCB8B" font-family="Segoe UI,Arial,sans-serif" font-size="12">Valeur d'une app simple : 1 500 – 8 000 €</text>

  <!-- RIGHT SIDE -->
  <text x="760" y="210" fill="#A78BFA" font-family="Segoe UI,Arial,sans-serif" font-size="28" letter-spacing="8">APPS MOBILES</text>
  <text x="760" y="318" fill="#FFFFFF" font-family="Segoe UI,Arial,sans-serif" font-size="82" font-weight="700">CONCEVOIR</text>
  <text x="760" y="414" fill="#FFFFFF" font-family="Segoe UI,Arial,sans-serif" font-size="82" font-weight="700">ET VENDRE</text>
  <text x="760" y="466" fill="#C4B5FD" font-family="Segoe UI,Arial,sans-serif" font-size="28">App iOS + Android monétisable</text>
  <text x="760" y="500" fill="#9CA3AF" font-family="Segoe UI,Arial,sans-serif" font-size="26">Sans partir sur un produit trop lourd</text>
  <rect x="760" y="542" width="172" height="52" rx="26" fill="#4C1D95" stroke="#8B5CF6"/>
  <text x="788" y="574" fill="#E9D5FF" font-family="Segoe UI,Arial,sans-serif" font-size="22">MOBILE</text>
  <rect x="950" y="542" width="180" height="52" rx="26" fill="#4C1D95" stroke="#8B5CF6"/>
  <text x="975" y="574" fill="#E9D5FF" font-family="Segoe UI,Arial,sans-serif" font-size="22">FREEMIUM</text>
  <rect x="1148" y="542" width="110" height="52" rx="26" fill="rgba(235,203,139,.14)" stroke="rgba(235,203,139,.38)"/>
  <text x="1180" y="574" fill="#F6E6BE" font-family="Segoe UI,Arial,sans-serif" font-size="22">62 €</text>
  <rect x="760" y="642" width="680" height="2" fill="#2D1F5E"/>
  <text x="760" y="700" fill="#EBCB8B" font-family="Segoe UI,Arial,sans-serif" font-size="26">UNE APP SIMPLE, LIVRABLE ET MONÉTISABLE</text>
</svg>
