<svg width="1600" height="900" viewBox="0 0 1600 900" fill="none" xmlns="http://www.w3.org/2000/svg">
  <rect width="1600" height="900" fill="#060E0A"/>
  <circle cx="1380" cy="150" r="240" fill="#0A1E12" opacity=".8"/>
  <circle cx="1320" cy="120" r="130" fill="#0E2818" opacity=".7"/>
  <rect x="80" y="100" width="620" height="700" rx="28" fill="#091410" stroke="#1A3E28"/>

  <!-- App header / navbar -->
  <rect x="100" y="128" width="580" height="46" rx="14" fill="#102018" stroke="#1A3E28"/>
  <text x="124" y="157" fill="#34D399" font-family="Segoe UI,Arial,sans-serif" font-size="16" font-weight="700">GestionPro — App Métier Supabase</text>
  <rect x="530" y="138" width="136" height="24" rx="12" fill="#065F46"/>
  <text x="554" y="154" fill="#D1FAE5" font-family="Segoe UI,Arial,sans-serif" font-size="12" font-weight="700">Prod · v2.4.1</text>

  <!-- DB Schema panel -->
  <rect x="100" y="184" width="270" height="450" rx="0" fill="#0A1810"/>
  <text x="118" y="206" fill="#6EE7B7" font-family="Segoe UI,Arial,sans-serif" font-size="12" font-weight="700">Schéma base de données</text>

  <!-- Table: users -->
  <rect x="118" y="214" width="234" height="108" rx="8" fill="#0D2018" stroke="#1E4830"/>
  <rect x="118" y="214" width="234" height="26" rx="8" fill="#065F46"/>
  <rect x="118" y="232" width="234" height="8" fill="#065F46"/>
  <text x="200" y="231" fill="#D1FAE5" font-family="Segoe UI,Arial,sans-serif" font-size="11" font-weight="700">users</text>
  <text x="128" y="253" fill="#6EE7B7" font-family="Segoe UI,Arial,sans-serif" font-size="10">🔑 id</text><text x="220" y="253" fill="#94A3B8" font-family="Segoe UI,Arial,sans-serif" font-size="10">uuid pk</text>
  <text x="128" y="268" fill="#D1FAE5" font-family="Segoe UI,Arial,sans-serif" font-size="10">email</text><text x="220" y="268" fill="#94A3B8" font-family="Segoe UI,Arial,sans-serif" font-size="10">text</text>
  <text x="128" y="283" fill="#D1FAE5" font-family="Segoe UI,Arial,sans-serif" font-size="10">role</text><text x="220" y="283" fill="#FCD34D" font-family="Segoe UI,Arial,sans-serif" font-size="10">enum</text>
  <text x="128" y="298" fill="#D1FAE5" font-family="Segoe UI,Arial,sans-serif" font-size="10">created_at</text><text x="220" y="298" fill="#94A3B8" font-family="Segoe UI,Arial,sans-serif" font-size="10">timestamp</text>
  <text x="128" y="313" fill="#D1FAE5" font-family="Segoe UI,Arial,sans-serif" font-size="10">is_active</text><text x="220" y="313" fill="#60A5FA" font-family="Segoe UI,Arial,sans-serif" font-size="10">bool</text>

  <!-- Relation arrow -->
  <line x1="235" y1="322" x2="235" y2="340" stroke="#34D399" stroke-width="1.5" stroke-dasharray="4 2"/>
  <polygon points="230,340 240,340 235,348" fill="#34D399"/>

  <!-- Table: missions -->
  <rect x="118" y="348" width="234" height="124" rx="8" fill="#0D2018" stroke="#1E4830"/>
  <rect x="118" y="348" width="234" height="26" rx="8" fill="#064E3B"/>
  <rect x="118" y="366" width="234" height="8" fill="#064E3B"/>
  <text x="200" y="365" fill="#D1FAE5" font-family="Segoe UI,Arial,sans-serif" font-size="11" font-weight="700">missions</text>
  <text x="128" y="387" fill="#6EE7B7" font-family="Segoe UI,Arial,sans-serif" font-size="10">🔑 id</text><text x="220" y="387" fill="#94A3B8" font-family="Segoe UI,Arial,sans-serif" font-size="10">uuid pk</text>
  <text x="128" y="402" fill="#A78BFA" font-family="Segoe UI,Arial,sans-serif" font-size="10">user_id</text><text x="220" y="402" fill="#A78BFA" font-family="Segoe UI,Arial,sans-serif" font-size="10">fk → users</text>
  <text x="128" y="417" fill="#D1FAE5" font-family="Segoe UI,Arial,sans-serif" font-size="10">titre</text><text x="220" y="417" fill="#94A3B8" font-family="Segoe UI,Arial,sans-serif" font-size="10">text</text>
  <text x="128" y="432" fill="#D1FAE5" font-family="Segoe UI,Arial,sans-serif" font-size="10">montant</text><text x="220" y="432" fill="#FCD34D" font-family="Segoe UI,Arial,sans-serif" font-size="10">numeric</text>
  <text x="128" y="447" fill="#D1FAE5" font-family="Segoe UI,Arial,sans-serif" font-size="10">statut</text><text x="220" y="447" fill="#FCD34D" font-family="Segoe UI,Arial,sans-serif" font-size="10">enum</text>
  <text x="128" y="462" fill="#D1FAE5" font-family="Segoe UI,Arial,sans-serif" font-size="10">client_id</text><text x="220" y="462" fill="#A78BFA" font-family="Segoe UI,Arial,sans-serif" font-size="10">fk → clients</text>

  <!-- Relation arrow -->
  <line x1="235" y1="472" x2="235" y2="490" stroke="#34D399" stroke-width="1.5" stroke-dasharray="4 2"/>
  <polygon points="230,490 240,490 235,498" fill="#34D399"/>

  <!-- Table: clients -->
  <rect x="118" y="498" width="234" height="108" rx="8" fill="#0D2018" stroke="#1E4830"/>
  <rect x="118" y="498" width="234" height="26" rx="8" fill="#14532D"/>
  <rect x="118" y="516" width="234" height="8" fill="#14532D"/>
  <text x="200" y="515" fill="#D1FAE5" font-family="Segoe UI,Arial,sans-serif" font-size="11" font-weight="700">clients</text>
  <text x="128" y="537" fill="#6EE7B7" font-family="Segoe UI,Arial,sans-serif" font-size="10">🔑 id</text><text x="220" y="537" fill="#94A3B8" font-family="Segoe UI,Arial,sans-serif" font-size="10">uuid pk</text>
  <text x="128" y="552" fill="#D1FAE5" font-family="Segoe UI,Arial,sans-serif" font-size="10">nom</text><text x="220" y="552" fill="#94A3B8" font-family="Segoe UI,Arial,sans-serif" font-size="10">text</text>
  <text x="128" y="567" fill="#D1FAE5" font-family="Segoe UI,Arial,sans-serif" font-size="10">email</text><text x="220" y="567" fill="#94A3B8" font-family="Segoe UI,Arial,sans-serif" font-size="10">text</text>
  <text x="128" y="582" fill="#D1FAE5" font-family="Segoe UI,Arial,sans-serif" font-size="10">secteur</text><text x="220" y="582" fill="#FCD34D" font-family="Segoe UI,Arial,sans-serif" font-size="10">enum</text>
  <text x="128" y="597" fill="#D1FAE5" font-family="Segoe UI,Arial,sans-serif" font-size="10">actif</text><text x="220" y="597" fill="#60A5FA" font-family="Segoe UI,Arial,sans-serif" font-size="10">bool</text>

  <!-- Supabase badge -->
  <rect x="118" y="630" width="234" height="70" rx="10" fill="#0D2018" stroke="#34D399"/>
  <text x="168" y="660" fill="#34D399" font-family="Segoe UI,Arial,sans-serif" font-size="16" font-weight="700">Supabase</text>
  <text x="136" y="682" fill="#6EE7B7" font-family="Segoe UI,Arial,sans-serif" font-size="10">PostgreSQL · Auth · RLS · Edge Fn</text>

  <!-- App UI panel -->
  <rect x="390" y="184" width="290" height="520" rx="0" fill="#091410"/>
  <text x="408" y="206" fill="#6EE7B7" font-family="Segoe UI,Arial,sans-serif" font-size="12" font-weight="700">Interface admin</text>
  <!-- Admin header -->
  <rect x="408" y="214" width="254" height="36" rx="8" fill="#0D2018" stroke="#1A3E28"/>
  <text x="422" y="232" fill="#34D399" font-family="Segoe UI,Arial,sans-serif" font-size="11" font-weight="700">Dashboard GestionPro</text>
  <text x="422" y="246" fill="#6B7280" font-family="Segoe UI,Arial,sans-serif" font-size="9">Connecté · Thomas admin</text>
  <!-- Stats -->
  <rect x="408" y="258" width="118" height="52" rx="8" fill="#0D2018" stroke="#1A3E28"/>
  <text x="422" y="276" fill="#6B7280" font-family="Segoe UI,Arial,sans-serif" font-size="10">Missions actives</text>
  <text x="422" y="298" fill="#34D399" font-family="Segoe UI,Arial,sans-serif" font-size="22" font-weight="700">8</text>
  <rect x="544" y="258" width="118" height="52" rx="8" fill="#0D2018" stroke="#1A3E28"/>
  <text x="558" y="276" fill="#6B7280" font-family="Segoe UI,Arial,sans-serif" font-size="10">CA du mois</text>
  <text x="558" y="298" fill="#EBCB8B" font-family="Segoe UI,Arial,sans-serif" font-size="22" font-weight="700">4 800€</text>
  <!-- Missions list -->
  <text x="408" y="328" fill="#6EE7B7" font-family="Segoe UI,Arial,sans-serif" font-size="11">Missions récentes</text>
  <rect x="408" y="336" width="254" height="34" rx="6" fill="#0D2018" stroke="#1A3E28"/>
  <text x="420" y="352" fill="#D1FAE5" font-family="Segoe UI,Arial,sans-serif" font-size="11" font-weight="600">Maintenance Garage Dumas</text>
  <text x="420" y="364" fill="#6EE7B7" font-family="Segoe UI,Arial,sans-serif" font-size="9">650 € · ACTIF</text>
  <rect x="408" y="376" width="254" height="34" rx="6" fill="#091410"/>
  <text x="420" y="392" fill="#D1FAE5" font-family="Segoe UI,Arial,sans-serif" font-size="11" font-weight="600">Site web Cabinet Martin</text>
  <text x="420" y="404" fill="#FCD34D" font-family="Segoe UI,Arial,sans-serif" font-size="9">1 200 € · EN COURS</text>
  <rect x="408" y="416" width="254" height="34" rx="6" fill="#0D2018" stroke="#1A3E28"/>
  <text x="420" y="432" fill="#D1FAE5" font-family="Segoe UI,Arial,sans-serif" font-size="11" font-weight="600">GLPI Boulangerie Petit</text>
  <text x="420" y="444" fill="#34D399" font-family="Segoe UI,Arial,sans-serif" font-size="9">650 € · LIVRÉ ✓</text>
  <!-- RLS / Auth -->
  <text x="408" y="470" fill="#6EE7B7" font-family="Segoe UI,Arial,sans-serif" font-size="11">Sécurité & Rôles</text>
  <rect x="408" y="478" width="254" height="72" rx="8" fill="#0D2018" stroke="#1A3E28"/>
  <text x="422" y="498" fill="#D1FAE5" font-family="Segoe UI,Arial,sans-serif" font-size="10">Rôle admin → accès complet</text>
  <text x="422" y="514" fill="#D1FAE5" font-family="Segoe UI,Arial,sans-serif" font-size="10">Rôle user → missions propres</text>
  <text x="422" y="530" fill="#34D399" font-family="Segoe UI,Arial,sans-serif" font-size="10">RLS Supabase configuré ✓</text>
  <text x="422" y="546" fill="#94A3B8" font-family="Segoe UI,Arial,sans-serif" font-size="9">Row Level Security activé sur toutes les tables</text>
  <!-- Back-office -->
  <text x="408" y="570" fill="#6EE7B7" font-family="Segoe UI,Arial,sans-serif" font-size="11">Back-office</text>
  <rect x="408" y="578" width="120" height="34" rx="6" fill="#065F46" stroke="#34D399"/>
  <text x="428" y="599" fill="#D1FAE5" font-family="Segoe UI,Arial,sans-serif" font-size="11" font-weight="700">Gérer clients</text>
  <rect x="542" y="578" width="120" height="34" rx="6" fill="#064E3B" stroke="#10B981"/>
  <text x="556" y="599" fill="#D1FAE5" font-family="Segoe UI,Arial,sans-serif" font-size="11" font-weight="700">Voir missions</text>
  <rect x="408" y="620" width="254" height="56" rx="8" fill="#0D2018" stroke="#1A3E28"/>
  <text x="422" y="640" fill="#94A3B8" font-family="Segoe UI,Arial,sans-serif" font-size="10">Déploiement</text>
  <text x="422" y="656" fill="#34D399" font-family="Segoe UI,Arial,sans-serif" font-size="11">Vercel + Supabase cloud · 0€/mois</text>
  <text x="422" y="670" fill="#6EE7B7" font-family="Segoe UI,Arial,sans-serif" font-size="10">Livrable client prêt en 2 semaines</text>

  <!-- RIGHT SIDE -->
  <text x="760" y="210" fill="#34D399" font-family="Segoe UI,Arial,sans-serif" font-size="28" letter-spacing="8">APPS MÉTIER</text>
  <text x="760" y="316" fill="#FFFFFF" font-family="Segoe UI,Arial,sans-serif" font-size="82" font-weight="700">SUPABASE</text>
  <text x="760" y="410" fill="#FFFFFF" font-family="Segoe UI,Arial,sans-serif" font-size="82" font-weight="700">+ AUTH</text>
  <text x="760" y="462" fill="#6EE7B7" font-family="Segoe UI,Arial,sans-serif" font-size="28">Apps livrables, avec base de données,</text>
  <text x="760" y="496" fill="#6EE7B7" font-family="Segoe UI,Arial,sans-serif" font-size="28">rôles et back-office inclus</text>
  <rect x="760" y="538" width="156" height="52" rx="26" fill="#064E3B" stroke="#10B981"/>
  <text x="796" y="570" fill="#D1FAE5" font-family="Segoe UI,Arial,sans-serif" font-size="22">DATABASE</text>
  <rect x="934" y="538" width="136" height="52" rx="26" fill="#064E3B" stroke="#10B981"/>
  <text x="968" y="570" fill="#D1FAE5" font-family="Segoe UI,Arial,sans-serif" font-size="22">AUTH</text>
  <rect x="1088" y="538" width="110" height="52" rx="26" fill="rgba(235,203,139,.14)" stroke="rgba(235,203,139,.38)"/>
  <text x="1120" y="570" fill="#F6E6BE" font-family="Segoe UI,Arial,sans-serif" font-size="22">68 €</text>
  <rect x="760" y="638" width="680" height="2" fill="#1A3E28"/>
  <text x="760" y="696" fill="#EBCB8B" font-family="Segoe UI,Arial,sans-serif" font-size="26">DES APPS UTILES, LIVRABLES VITE ET MAINTENABLES</text>
</svg>
