<svg width="1200" height="720" viewBox="0 0 1200 720" fill="none" xmlns="http://www.w3.org/2000/svg">
  <rect width="1200" height="720" rx="36" fill="#07101F"/>
  <rect x="38" y="38" width="1124" height="644" rx="28" fill="url(#bg2)" stroke="rgba(255,255,255,0.08)"/>
  <rect x="108" y="128" width="440" height="300" rx="28" fill="#101A30" stroke="rgba(255,255,255,0.08)"/>
  <rect x="148" y="170" width="120" height="18" rx="9" fill="#6B72F7"/>
  <rect x="148" y="216" width="320" height="16" rx="8" fill="#23314F"/>
  <rect x="148" y="252" width="280" height="16" rx="8" fill="#23314F"/>
  <rect x="148" y="312" width="92" height="92" rx="24" fill="#141E36" stroke="rgba(107,114,247,0.35)"/>
  <rect x="278" y="312" width="92" height="92" rx="24" fill="#141E36" stroke="rgba(107,114,247,0.35)"/>
  <rect x="408" y="312" width="92" height="92" rx="24" fill="#141E36" stroke="rgba(107,114,247,0.35)"/>
  <path d="M240 358H278M370 358H408" stroke="#6B72F7" stroke-width="10" stroke-linecap="round"/>
  <circle cx="948" cy="186" r="86" fill="url(#glow2)" fill-opacity="0.7"/>
  <text x="650" y="108" fill="#B9B9FF" font-family="Arial, sans-serif" font-size="22" letter-spacing="8">PORTFOLIO IA</text>
  <text x="650" y="186" fill="#F4EFE4" font-family="Arial, sans-serif" font-size="50" font-weight="700">AUTOMATISER</text>
  <text x="650" y="246" fill="#F4EFE4" font-family="Arial, sans-serif" font-size="50" font-weight="700">LE SUIVI</text>
  <text x="650" y="306" fill="#F4EFE4" font-family="Arial, sans-serif" font-size="50" font-weight="700">DU PORTEFEUILLE</text>
  <text x="650" y="382" fill="#AAB6CD" font-family="Arial, sans-serif" font-size="24">APIs financières, n8n et reporting clair</text>
  <rect x="650" y="454" width="220" height="44" rx="22" fill="rgba(107,114,247,0.16)" stroke="rgba(107,114,247,0.36)"/>
  <text x="690" y="483" fill="#C7C8FF" font-family="Arial, sans-serif" font-size="20" font-weight="700">WORKFLOW IA</text>
  <defs>
    <linearGradient id="bg2" x1="72" y1="64" x2="1102" y2="650" gradientUnits="userSpaceOnUse">
      <stop stop-color="#0E1630"/>
      <stop offset="1" stop-color="#0A1120"/>
    </linearGradient>
    <radialGradient id="glow2" cx="0" cy="0" r="1" gradientUnits="userSpaceOnUse" gradientTransform="translate(948 186) rotate(90) scale(86)">
      <stop stop-color="#7B6CFF"/>
      <stop offset="1" stop-color="#7B6CFF" stop-opacity="0"/>
    </radialGradient>
  </defs>
</svg>
