<svg width="1600" height="900" viewBox="0 0 1600 900" fill="none" xmlns="http://www.w3.org/2000/svg">
  <defs>
    <linearGradient id="bg" x1="0" y1="0" x2="1600" y2="900" gradientUnits="userSpaceOnUse">
      <stop stop-color="#09111F"/>
      <stop offset="1" stop-color="#0D1F1A"/>
    </linearGradient>
    <linearGradient id="node" x1="0" y1="0" x2="100" y2="100" gradientUnits="userSpaceOnUse">
      <stop stop-color="#34D399"/>
      <stop offset="1" stop-color="#059669"/>
    </linearGradient>
  </defs>
  <rect width="1600" height="900" rx="42" fill="url(#bg)"/>
  <circle cx="1340" cy="180" r="220" fill="#081A13"/>
  <circle cx="1280" cy="150" r="130" fill="#0C2218"/>
  <!-- n8n workflow diagram left panel -->
  <rect x="114" y="146" width="620" height="608" rx="32" fill="#0A1610" stroke="#065F46"/>
  <rect x="160" y="192" width="528" height="108" rx="24" fill="#0D2218"/>
  <!-- Workflow nodes -->
  <circle cx="250" cy="400" r="44" fill="#0D2218" stroke="#34D399" stroke-width="2"/>
  <text x="234" y="408" fill="#34D399" font-family="Segoe UI, Arial, sans-serif" font-size="22" font-weight="700">n8n</text>
  <line x1="294" y1="400" x2="390" y2="360" stroke="#34D399" stroke-width="2" stroke-dasharray="6 4"/>
  <circle cx="430" cy="345" r="38" fill="#0D2218" stroke="#6EE7B7" stroke-width="2"/>
  <text x="415" y="352" fill="#6EE7B7" font-family="Segoe UI, Arial, sans-serif" font-size="16">API</text>
  <line x1="294" y1="405" x2="390" y2="450" stroke="#34D399" stroke-width="2" stroke-dasharray="6 4"/>
  <circle cx="430" cy="460" r="38" fill="#0D2218" stroke="#6EE7B7" stroke-width="2"/>
  <text x="410" y="468" fill="#6EE7B7" font-family="Segoe UI, Arial, sans-serif" font-size="14">Mail</text>
  <line x1="468" y1="345" x2="560" y2="360" stroke="#34D399" stroke-width="2" stroke-dasharray="6 4"/>
  <line x1="468" y1="460" x2="560" y2="445" stroke="#34D399" stroke-width="2" stroke-dasharray="6 4"/>
  <circle cx="598" cy="400" r="44" fill="#0D2218" stroke="#10B981" stroke-width="2.5"/>
  <text x="578" y="408" fill="#34D399" font-family="Segoe UI, Arial, sans-serif" font-size="18" font-weight="700">PME</text>
  <!-- Bottom lines -->
  <rect x="160" y="580" width="340" height="12" rx="6" fill="#065F46" fill-opacity=".6"/>
  <rect x="160" y="604" width="240" height="12" rx="6" fill="#065F46" fill-opacity=".4"/>
  <rect x="160" y="628" width="290" height="12" rx="6" fill="#065F46" fill-opacity=".3"/>
  <!-- Right side text -->
  <text x="800" y="240" fill="#34D399" font-family="Segoe UI, Arial, sans-serif" font-size="34" letter-spacing="10">AUTOMATISATION N8N</text>
  <text x="800" y="350" fill="#FFFFFF" font-family="Segoe UI, Arial, sans-serif" font-size="82" font-weight="700">ZÉRO TÂCHE</text>
  <text x="800" y="448" fill="#FFFFFF" font-family="Segoe UI, Arial, sans-serif" font-size="82" font-weight="700">RÉPÉTITIVE</text>
  <text x="800" y="524" fill="#D9E3F2" font-family="Segoe UI, Arial, sans-serif" font-size="34">VPS, WORKFLOWS, INTÉGRATIONS, RECURRING</text>
  <rect x="800" y="570" width="186" height="56" rx="28" fill="#064E3B" stroke="#10B981"/>
  <text x="842" y="606" fill="#D1FAE5" font-family="Segoe UI, Arial, sans-serif" font-size="26">n8n CLOUD</text>
  <rect x="1010" y="570" width="210" height="56" rx="28" fill="#064E3B" stroke="#10B981"/>
  <text x="1052" y="606" fill="#D1FAE5" font-family="Segoe UI, Arial, sans-serif" font-size="26">WORKFLOWS</text>
  <rect x="1248" y="570" width="166" height="56" rx="28" fill="#EBCB8B" fill-opacity=".14" stroke="#EBCB8B" stroke-opacity=".38"/>
  <text x="1296" y="606" fill="#F6E6BE" font-family="Segoe UI, Arial, sans-serif" font-size="26">59 €</text>
  <rect x="800" y="672" width="702" height="2" fill="#065F46"/>
  <text x="800" y="740" fill="#EBCB8B" font-family="Segoe UI, Arial, sans-serif" font-size="30">VENDRE ET LIVRER UNE MISSION NO-CODE PME</text>
</svg>
