<svg width="1600" height="900" viewBox="0 0 1600 900" fill="none" xmlns="http://www.w3.org/2000/svg">
  <defs>
    <linearGradient id="bg" x1="0" y1="0" x2="1600" y2="900" gradientUnits="userSpaceOnUse">
      <stop stop-color="#09111F"/>
      <stop offset="1" stop-color="#1A0E2B"/>
    </linearGradient>
    <linearGradient id="shield" x1="200" y1="200" x2="600" y2="700" gradientUnits="userSpaceOnUse">
      <stop stop-color="#C084FC"/>
      <stop offset="1" stop-color="#7C3AED"/>
    </linearGradient>
  </defs>
  <rect width="1600" height="900" rx="42" fill="url(#bg)"/>
  <circle cx="1340" cy="180" r="220" fill="#1A0A2E"/>
  <circle cx="1280" cy="150" r="130" fill="#220E38"/>
  <!-- Shield icon left panel -->
  <rect x="114" y="146" width="620" height="608" rx="32" fill="#0E1020" stroke="#4C1D95"/>
  <rect x="160" y="192" width="528" height="108" rx="24" fill="#1E0B35"/>
  <!-- Shield paths -->
  <path d="M338 310 L338 430 C338 490 400 540 480 560 C560 540 622 490 622 430 L622 310 L480 280 Z" fill="none" stroke="#7C3AED" stroke-width="3" stroke-linejoin="round"/>
  <path d="M370 340 L370 432 C370 478 420 516 480 532 C540 516 590 478 590 432 L590 340 L480 316 Z" fill="#1E0B35" stroke="#A855F7" stroke-width="2"/>
  <path d="M440 430 L465 458 L530 390" stroke="#C084FC" stroke-width="8" stroke-linecap="round" stroke-linejoin="round"/>
  <!-- Log lines bottom left -->
  <rect x="160" y="600" width="340" height="12" rx="6" fill="#4C1D95" fill-opacity=".5"/>
  <rect x="160" y="624" width="260" height="12" rx="6" fill="#4C1D95" fill-opacity=".35"/>
  <rect x="160" y="648" width="300" height="12" rx="6" fill="#4C1D95" fill-opacity=".25"/>
  <!-- Right side text -->
  <text x="800" y="240" fill="#C084FC" font-family="Segoe UI, Arial, sans-serif" font-size="34" letter-spacing="10">CYBERSÉCURITÉ PME</text>
  <text x="800" y="350" fill="#FFFFFF" font-family="Segoe UI, Arial, sans-serif" font-size="82" font-weight="700">VENDRE ET</text>
  <text x="800" y="448" fill="#FFFFFF" font-family="Segoe UI, Arial, sans-serif" font-size="82" font-weight="700">LIVRER</text>
  <text x="800" y="524" fill="#D9E3F2" font-family="Segoe UI, Arial, sans-serif" font-size="34">NIS2, EDR, AUDIT, PRA, SENSIBILISATION</text>
  <rect x="800" y="570" width="206" height="56" rx="28" fill="#2E1065" stroke="#7C3AED"/>
  <text x="845" y="606" fill="#E9D5FF" font-family="Segoe UI, Arial, sans-serif" font-size="26">NIS2 2026</text>
  <rect x="1030" y="570" width="200" height="56" rx="28" fill="#2E1065" stroke="#7C3AED"/>
  <text x="1078" y="606" fill="#E9D5FF" font-family="Segoe UI, Arial, sans-serif" font-size="26">AUDIT PME</text>
  <rect x="1256" y="570" width="166" height="56" rx="28" fill="#EBCB8B" fill-opacity=".14" stroke="#EBCB8B" stroke-opacity=".38"/>
  <text x="1304" y="606" fill="#F6E6BE" font-family="Segoe UI, Arial, sans-serif" font-size="26">69 €</text>
  <rect x="800" y="672" width="702" height="2" fill="#5B21B6"/>
  <text x="800" y="740" fill="#EBCB8B" font-family="Segoe UI, Arial, sans-serif" font-size="30">UNE MISSION CRÉDIBLE, UN LIVRABLE CONCRET</text>
</svg>
