<svg width="1600" height="900" viewBox="0 0 1600 900" fill="none" xmlns="http://www.w3.org/2000/svg">
  <defs>
    <linearGradient id="bg" x1="0" y1="0" x2="1600" y2="900" gradientUnits="userSpaceOnUse">
      <stop stop-color="#07101E"/>
      <stop offset="1" stop-color="#0F2240"/>
    </linearGradient>
  </defs>
  <rect width="1600" height="900" fill="url(#bg)"/>
  <!-- Decorative circles -->
  <circle cx="1380" cy="160" r="240" fill="#0D1F3A" opacity=".7"/>
  <circle cx="1320" cy="130" r="140" fill="#122848" opacity=".6"/>

  <!-- ── LEFT PANEL : Laptop mockup ── -->
  <rect x="80" y="100" width="620" height="700" rx="28" fill="#0B1828" stroke="#1C3454"/>

  <!-- Laptop screen -->
  <rect x="120" y="140" width="540" height="380" rx="16" fill="#0D1F36" stroke="#254868"/>
  <!-- Screen header bar -->
  <rect x="120" y="140" width="540" height="42" rx="16" fill="#132B47"/>
  <rect x="120" y="168" width="540" height="14" fill="#132B47"/>
  <circle cx="152" cy="161" r="7" fill="#D96060"/>
  <circle cx="176" cy="161" r="7" fill="#DBA94A"/>
  <circle cx="200" cy="161" r="7" fill="#5BB87A"/>
  <!-- Address bar -->
  <rect x="228" y="151" width="280" height="20" rx="10" fill="#1A3550"/>
  <text x="242" y="165" fill="#4A7A9B" font-family="monospace" font-size="11">techcash-academy.fr/dashboard</text>

  <!-- Dashboard content -->
  <!-- Sidebar -->
  <rect x="120" y="182" width="120" height="338" fill="#0F2035"/>
  <rect x="132" y="202" width="96" height="28" rx="8" fill="#1A3554"/>
  <text x="150" y="221" fill="#EBCB8B" font-family="Segoe UI,Arial,sans-serif" font-size="12" font-weight="700">MISSIONS</text>
  <rect x="132" y="242" width="96" height="24" rx="6" fill="#0F2035"/>
  <text x="148" y="258" fill="#5A8BB0" font-family="Segoe UI,Arial,sans-serif" font-size="11">Clients</text>
  <rect x="132" y="274" width="96" height="24" rx="6" fill="#0F2035"/>
  <text x="148" y="290" fill="#5A8BB0" font-family="Segoe UI,Arial,sans-serif" font-size="11">Devis</text>
  <rect x="132" y="306" width="96" height="24" rx="6" fill="#0F2035"/>
  <text x="148" y="322" fill="#5A8BB0" font-family="Segoe UI,Arial,sans-serif" font-size="11">Factures</text>
  <rect x="132" y="338" width="96" height="24" rx="6" fill="#0F2035"/>
  <text x="148" y="354" fill="#5A8BB0" font-family="Segoe UI,Arial,sans-serif" font-size="11">Agenda</text>

  <!-- Main content -->
  <!-- Stat cards row -->
  <rect x="252" y="196" width="156" height="74" rx="12" fill="#132E4E"/>
  <text x="268" y="220" fill="#7AAFCC" font-family="Segoe UI,Arial,sans-serif" font-size="11">Revenus ce mois</text>
  <text x="268" y="248" fill="#EBCB8B" font-family="Segoe UI,Arial,sans-serif" font-size="26" font-weight="700">2 400 €</text>
  <rect x="422" y="196" width="106" height="74" rx="12" fill="#132E4E"/>
  <text x="438" y="220" fill="#7AAFCC" font-family="Segoe UI,Arial,sans-serif" font-size="11">Missions</text>
  <text x="438" y="248" fill="#FFFFFF" font-family="Segoe UI,Arial,sans-serif" font-size="26" font-weight="700">3</text>
  <rect x="542" y="196" width="106" height="74" rx="12" fill="#132E4E"/>
  <text x="558" y="220" fill="#7AAFCC" font-family="Segoe UI,Arial,sans-serif" font-size="11">Clients</text>
  <text x="558" y="248" fill="#FFFFFF" font-family="Segoe UI,Arial,sans-serif" font-size="26" font-weight="700">5</text>

  <!-- Client list -->
  <text x="252" y="302" fill="#4A7A9B" font-family="Segoe UI,Arial,sans-serif" font-size="11">Missions actives</text>
  <rect x="252" y="312" width="396" height="40" rx="8" fill="#0F2035" stroke="#1A3554"/>
  <circle cx="276" cy="332" r="12" fill="#1A4060"/>
  <text x="270" y="337" fill="#EBCB8B" font-family="Segoe UI,Arial,sans-serif" font-size="10" font-weight="700">IT</text>
  <text x="298" y="328" fill="#D9E3F2" font-family="Segoe UI,Arial,sans-serif" font-size="12" font-weight="600">Maintenance réseau — Garage Dumas</text>
  <text x="298" y="346" fill="#4A7A9B" font-family="Segoe UI,Arial,sans-serif" font-size="10">Mensuel · 450 €/mois</text>
  <rect x="574" y="320" width="62" height="24" rx="12" fill="rgba(52,211,153,.15)" stroke="rgba(52,211,153,.4)"/>
  <text x="589" y="336" fill="#34D399" font-family="Segoe UI,Arial,sans-serif" font-size="10" font-weight="700">ACTIF</text>

  <rect x="252" y="358" width="396" height="40" rx="8" fill="#0F2035" stroke="#1A3554"/>
  <circle cx="276" cy="378" r="12" fill="#1A4060"/>
  <text x="270" y="383" fill="#60A5FA" font-family="Segoe UI,Arial,sans-serif" font-size="10" font-weight="700">W</text>
  <text x="298" y="374" fill="#D9E3F2" font-family="Segoe UI,Arial,sans-serif" font-size="12" font-weight="600">Installation postes — Cabinet Leblanc</text>
  <text x="298" y="392" fill="#4A7A9B" font-family="Segoe UI,Arial,sans-serif" font-size="10">Forfait · 800 €</text>
  <rect x="564" y="366" width="76" height="24" rx="12" fill="rgba(251,191,36,.15)" stroke="rgba(251,191,36,.4)"/>
  <text x="574" y="382" fill="#FCD34D" font-family="Segoe UI,Arial,sans-serif" font-size="10" font-weight="700">EN COURS</text>

  <rect x="252" y="404" width="396" height="40" rx="8" fill="#0F2035" stroke="#1A3554"/>
  <circle cx="276" cy="424" r="12" fill="#1A4060"/>
  <text x="270" y="429" fill="#C084FC" font-family="Segoe UI,Arial,sans-serif" font-size="10" font-weight="700">PM</text>
  <text x="298" y="420" fill="#D9E3F2" font-family="Segoe UI,Arial,sans-serif" font-size="12" font-weight="600">Microsoft 365 — PME Roblin</text>
  <text x="298" y="438" fill="#4A7A9B" font-family="Segoe UI,Arial,sans-serif" font-size="10">Migration · 1 200 €</text>
  <rect x="574" y="412" width="62" height="24" rx="12" fill="rgba(99,102,241,.15)" stroke="rgba(99,102,241,.4)"/>
  <text x="587" y="428" fill="#A5B4FC" font-family="Segoe UI,Arial,sans-serif" font-size="10" font-weight="700">DEVIS</text>

  <!-- Laptop base -->
  <rect x="100" y="520" width="580" height="20" rx="4" fill="#0A1828"/>
  <rect x="220" y="540" width="340" height="10" rx="5" fill="#0D1F36"/>

  <!-- Calendar 30 days visual -->
  <rect x="130" y="580" width="240" height="190" rx="14" fill="#0E2238" stroke="#254868"/>
  <rect x="130" y="580" width="240" height="40" rx="14" fill="#132B47"/>
  <rect x="130" y="606" width="240" height="14" fill="#132B47"/>
  <text x="210" y="605" fill="#EBCB8B" font-family="Segoe UI,Arial,sans-serif" font-size="14" font-weight="700">JOUR 30 ✓</text>
  <!-- Calendar grid -->
  <text x="148" y="638" fill="#4A7A9B" font-family="Segoe UI,Arial,sans-serif" font-size="11">L  M  M  J  V  S  D</text>
  <!-- Week 1 -->
  <text x="148" y="658" fill="#5B8AB5" font-family="Segoe UI,Arial,sans-serif" font-size="11">✓  ✓  ✓  ✓  ✓  ✓  ✓</text>
  <!-- Week 2 -->
  <text x="148" y="676" fill="#5B8AB5" font-family="Segoe UI,Arial,sans-serif" font-size="11">✓  ✓  ✓  ✓  ✓  ✓  ✓</text>
  <!-- Week 3 -->
  <text x="148" y="694" fill="#5B8AB5" font-family="Segoe UI,Arial,sans-serif" font-size="11">✓  ✓  ✓  ✓  ✓  ✓  ✓</text>
  <!-- Week 4 -->
  <text x="148" y="712" fill="#EBCB8B" font-family="Segoe UI,Arial,sans-serif" font-size="11">✓  ✓  ✓  ✓  ✓  ✓  ✓</text>
  <text x="148" y="748" fill="#34D399" font-family="Segoe UI,Arial,sans-serif" font-size="12" font-weight="700">Mission lancée ✓</text>

  <!-- Revenue chart -->
  <rect x="390" y="580" width="270" height="190" rx="14" fill="#0E2238" stroke="#254868"/>
  <text x="408" y="606" fill="#7AAFCC" font-family="Segoe UI,Arial,sans-serif" font-size="12">Progression revenus</text>
  <line x1="408" y1="730" x2="648" y2="730" stroke="#1A3554" stroke-width="1"/>
  <polyline points="408,720 448,700 488,680 528,650 568,610 608,570 648,540" stroke="#EBCB8B" stroke-width="3" fill="none" stroke-linecap="round"/>
  <text x="408" y="754" fill="#EBCB8B" font-family="Segoe UI,Arial,sans-serif" font-size="13" font-weight="700">J1 → J30 : +2 400 €</text>

  <!-- ── RIGHT SIDE TEXT ── -->
  <text x="760" y="210" fill="#EBCB8B" font-family="Segoe UI,Arial,sans-serif" font-size="28" letter-spacing="8">FREELANCE IT</text>
  <text x="760" y="320" fill="#FFFFFF" font-family="Segoe UI,Arial,sans-serif" font-size="96" font-weight="700" letter-spacing="-2">30 JOURS</text>
  <text x="760" y="400" fill="#D9E3F2" font-family="Segoe UI,Arial,sans-serif" font-size="30">Lancer une activité IT rentable</text>
  <text x="760" y="440" fill="#D9E3F2" font-family="Segoe UI,Arial,sans-serif" font-size="30">sans diplôme, avec méthode</text>

  <rect x="760" y="486" width="196" height="52" rx="26" fill="rgba(235,203,139,.14)" stroke="rgba(235,203,139,.45)"/>
  <text x="800" y="518" fill="#F6E6BE" font-family="Segoe UI,Arial,sans-serif" font-size="23">OFFRE PRINCIPALE</text>
  <rect x="982" y="486" width="156" height="52" rx="26" fill="#0E2238" stroke="#254868"/>
  <text x="1028" y="518" fill="#B0C8DF" font-family="Segoe UI,Arial,sans-serif" font-size="23">TERRAIN</text>
  <rect x="1162" y="486" width="110" height="52" rx="26" fill="#0E2238" stroke="#254868"/>
  <text x="1195" y="518" fill="#B0C8DF" font-family="Segoe UI,Arial,sans-serif" font-size="23">59 €</text>

  <rect x="760" y="586" width="680" height="2" fill="#1C3454"/>
  <text x="760" y="644" fill="#EBCB8B" font-family="Segoe UI,Arial,sans-serif" font-size="26">DE L'IDÉE À LA PREMIÈRE MISSION EN 30 JOURS</text>
</svg>
