<svg width="1600" height="900" viewBox="0 0 1600 900" fill="none" xmlns="http://www.w3.org/2000/svg">
  <defs>
    <linearGradient id="bg" x1="0" y1="0" x2="1600" y2="900"><stop stop-color="#071320"/><stop offset="1" stop-color="#15102B"/></linearGradient>
    <linearGradient id="glow" x1="120" y1="180" x2="700" y2="720"><stop stop-color="#38C793"/><stop offset="1" stop-color="#6366F1"/></linearGradient>
  </defs>
  <rect width="1600" height="900" rx="42" fill="url(#bg)"/>
  <rect x="102" y="118" width="620" height="664" rx="34" fill="#0B1325" stroke="#23314D"/>
  <circle cx="1322" cy="174" r="170" fill="#152447" fill-opacity="0.45"/>
  <circle cx="1268" cy="206" r="110" fill="#2A1F4D" fill-opacity="0.5"/>
  <rect x="164" y="196" width="486" height="84" rx="24" fill="#111A31"/>
  <rect x="164" y="320" width="248" height="232" rx="28" fill="#0F1830" stroke="#2C3E62"/>
  <path d="M472 582C472 520 522 470 584 470H662V676H472V582Z" fill="#0F1830"/>
  <path d="M226 490C290 446 360 452 412 486C468 522 486 590 540 618C586 642 628 642 662 634" stroke="url(#glow)" stroke-width="10" stroke-linecap="round"/>
  <circle cx="364" cy="494" r="18" fill="#38C793"/>
  <circle cx="522" cy="548" r="16" fill="#6D7CFF"/>
  <circle cx="620" cy="626" r="14" fill="#E7C680"/>
  <text x="808" y="170" fill="#E7C680" font-family="Segoe UI, Arial" font-size="30" letter-spacing="8">FLAGSHIP</text>
  <text x="808" y="286" fill="#F6F1E8" font-family="Georgia, serif" font-size="86" font-weight="700">IA &amp; REVENUS</text>
  <text x="808" y="380" fill="#F6F1E8" font-family="Georgia, serif" font-size="86" font-weight="700">ACTIFS</text>
  <text x="808" y="456" fill="#B9C6DD" font-family="Segoe UI, Arial" font-size="34">Positionnement, offre, clients, delivery, récurrence</text>
  <rect x="808" y="526" width="220" height="58" rx="29" fill="#183330" stroke="#38C793"/>
  <text x="864" y="564" fill="#A9F0D5" font-family="Segoe UI, Arial" font-size="26">97 €</text>
  <rect x="1052" y="526" width="232" height="58" rx="29" fill="#1A1832" stroke="#6366F1"/>
  <text x="1096" y="564" fill="#C9CCFF" font-family="Segoe UI, Arial" font-size="26">PROGRAMME</text>
  <text x="808" y="688" fill="#E7C680" font-family="Segoe UI, Arial" font-size="28">UNE ACTIVITÉ CLAIRE, LIVRABLE ET RENTABLE</text>
</svg>