<svg width="1600" height="900" viewBox="0 0 1600 900" fill="none" xmlns="http://www.w3.org/2000/svg">
  <defs>
    <linearGradient id="bg" x1="0" y1="0" x2="1600" y2="900" gradientUnits="userSpaceOnUse">
      <stop stop-color="#06120E"/>
      <stop offset="1" stop-color="#0D2A1C"/>
    </linearGradient>
  </defs>
  <rect width="1600" height="900" fill="url(#bg)"/>
  <circle cx="1380" cy="150" r="240" fill="#0B2018" opacity=".7"/>
  <circle cx="1320" cy="120" r="130" fill="#112A1E" opacity=".6"/>

  <!-- ── LEFT PANEL : Browser showing landing page ── -->
  <rect x="80" y="100" width="620" height="700" rx="28" fill="#0A1C14" stroke="#1A4030"/>

  <!-- Browser window -->
  <rect x="110" y="130" width="560" height="460" rx="14" fill="#0C2018" stroke="#1E4832"/>
  <!-- Browser chrome -->
  <rect x="110" y="130" width="560" height="38" rx="14" fill="#112C1E"/>
  <rect x="110" y="154" width="560" height="14" fill="#112C1E"/>
  <circle cx="138" cy="149" r="6" fill="#D96060"/>
  <circle cx="160" cy="149" r="6" fill="#DBA94A"/>
  <circle cx="182" cy="149" r="6" fill="#5BB87A"/>
  <!-- URL bar -->
  <rect x="206" y="141" width="300" height="16" rx="8" fill="#0D2218"/>
  <text x="220" y="153" fill="#34D399" font-family="monospace" font-size="10">🔒 lancement-produit.fr</text>
  <!-- CTA button in browser chrome -->
  <rect x="524" y="141" width="134" height="16" rx="8" fill="#065F46"/>
  <text x="546" y="153" fill="#D1FAE5" font-family="Segoe UI,Arial,sans-serif" font-size="10" font-weight="700">Partager la page</text>

  <!-- Landing page content inside browser -->
  <!-- Hero section -->
  <rect x="110" y="168" width="560" height="180" fill="#0F2D1E"/>
  <rect x="140" y="182" width="200" height="14" rx="7" fill="rgba(52,211,153,.3)"/>
  <text x="148" y="194" fill="#34D399" font-family="Segoe UI,Arial,sans-serif" font-size="10" font-weight="600">NOUVEAU — FORMATION IT</text>
  <text x="140" y="224" fill="#FFFFFF" font-family="Segoe UI,Arial,sans-serif" font-size="22" font-weight="700">Lance ton activité</text>
  <text x="140" y="250" fill="#FFFFFF" font-family="Segoe UI,Arial,sans-serif" font-size="22" font-weight="700">freelance IT en 30 jours</text>
  <text x="140" y="274" fill="#A7C4B5" font-family="Segoe UI,Arial,sans-serif" font-size="12">La méthode concrète pour trouver tes premiers clients</text>
  <text x="140" y="288" fill="#A7C4B5" font-family="Segoe UI,Arial,sans-serif" font-size="12">sans CV, sans réseau, sans diplôme.</text>
  <!-- CTA button hero -->
  <rect x="140" y="300" width="180" height="42" rx="21" fill="#10B981"/>
  <text x="175" y="325" fill="#FFFFFF" font-family="Segoe UI,Arial,sans-serif" font-size="14" font-weight="700">Je veux accéder →</text>
  <rect x="338" y="300" width="140" height="42" rx="21" fill="transparent" stroke="#34D399"/>
  <text x="370" y="325" fill="#34D399" font-family="Segoe UI,Arial,sans-serif" font-size="13">Voir le contenu</text>
  <!-- Hero stats -->
  <text x="140" y="360" fill="#6EE7B7" font-family="Segoe UI,Arial,sans-serif" font-size="11">★★★★★  +240 membres  ·  Accès immédiat</text>

  <!-- Features section -->
  <rect x="110" y="348" width="560" height="110" fill="#0A1E13"/>
  <rect x="126" y="362" width="156" height="80" rx="10" fill="#0F2A1C" stroke="#1A4030"/>
  <text x="150" y="388" fill="#34D399" font-family="Segoe UI,Arial,sans-serif" font-size="18">📋</text>
  <text x="140" y="410" fill="#D1FAE5" font-family="Segoe UI,Arial,sans-serif" font-size="11" font-weight="600">Offre claire</text>
  <text x="140" y="426" fill="#6EE7B7" font-family="Segoe UI,Arial,sans-serif" font-size="10">Promesse + preuve</text>
  <rect x="298" y="362" width="156" height="80" rx="10" fill="#0F2A1C" stroke="#1A4030"/>
  <text x="322" y="388" fill="#34D399" font-family="Segoe UI,Arial,sans-serif" font-size="18">⚡</text>
  <text x="312" y="410" fill="#D1FAE5" font-family="Segoe UI,Arial,sans-serif" font-size="11" font-weight="600">CTA optimisé</text>
  <text x="312" y="426" fill="#6EE7B7" font-family="Segoe UI,Arial,sans-serif" font-size="10">Bouton + formulaire</text>
  <rect x="470" y="362" width="186" height="80" rx="10" fill="#0F2A1C" stroke="#1A4030"/>
  <text x="494" y="388" fill="#34D399" font-family="Segoe UI,Arial,sans-serif" font-size="18">📈</text>
  <text x="484" y="410" fill="#D1FAE5" font-family="Segoe UI,Arial,sans-serif" font-size="11" font-weight="600">Conversion</text>
  <text x="484" y="426" fill="#6EE7B7" font-family="Segoe UI,Arial,sans-serif" font-size="10">Taux mesurable</text>

  <!-- Testimonial section -->
  <rect x="110" y="458" width="560" height="110" fill="#0C2418"/>
  <rect x="126" y="470" width="530" height="82" rx="10" fill="#0F2D1E" stroke="#1A4030"/>
  <text x="146" y="498" fill="#FCD34D" font-family="Segoe UI,Arial,sans-serif" font-size="12">★★★★★</text>
  <text x="146" y="520" fill="#D1FAE5" font-family="Segoe UI,Arial,sans-serif" font-size="12" font-style="italic">"Ma landing page a converti à 18% dès la première semaine.Méthode claire,</text>
  <text x="146" y="536" fill="#D1FAE5" font-family="Segoe UI,Arial,sans-serif" font-size="12" font-style="italic">résultat immédiat."</text>
  <text x="146" y="538" fill="#6EE7B7" font-family="Segoe UI,Arial,sans-serif" font-size="10">— Marc T., Freelance web</text>

  <!-- Mobile preview -->
  <rect x="150" y="590" width="130" height="190" rx="20" fill="#0E2A1C" stroke="#1E4A30"/>
  <rect x="168" y="600" width="94" height="14" rx="7" fill="#132B1E"/>
  <rect x="168" y="622" width="94" height="70" rx="6" fill="#0A1C12"/>
  <text x="180" y="650" fill="#34D399" font-family="Segoe UI,Arial,sans-serif" font-size="9">Lance ton</text>
  <text x="180" y="664" fill="#34D399" font-family="Segoe UI,Arial,sans-serif" font-size="9">activité IT</text>
  <rect x="174" y="700" width="82" height="26" rx="13" fill="#10B981"/>
  <text x="197" y="717" fill="#FFF" font-family="Segoe UI,Arial,sans-serif" font-size="9" font-weight="700">Accéder →</text>
  <!-- Analytics -->
  <rect x="300" y="590" width="390" height="190" rx="16" fill="#0E2A1C" stroke="#1E4A30"/>
  <text x="320" y="620" fill="#6EE7B7" font-family="Segoe UI,Arial,sans-serif" font-size="13">Analytics · 7 derniers jours</text>
  <rect x="320" y="636" width="340" height="1" fill="#1A4030"/>
  <text x="320" y="660" fill="#A7C4B5" font-family="Segoe UI,Arial,sans-serif" font-size="12">Visiteurs</text>
  <text x="560" y="660" fill="#FFFFFF" font-family="Segoe UI,Arial,sans-serif" font-size="12" font-weight="700">1 248</text>
  <text x="320" y="682" fill="#A7C4B5" font-family="Segoe UI,Arial,sans-serif" font-size="12">Conversions</text>
  <text x="560" y="682" fill="#34D399" font-family="Segoe UI,Arial,sans-serif" font-size="12" font-weight="700">224 (18%)</text>
  <text x="320" y="704" fill="#A7C4B5" font-family="Segoe UI,Arial,sans-serif" font-size="12">Revenus</text>
  <text x="560" y="704" fill="#EBCB8B" font-family="Segoe UI,Arial,sans-serif" font-size="12" font-weight="700">13 156 €</text>
  <!-- Mini chart -->
  <polyline points="320,750 360,740 400,735 440,720 480,710 520,690 560,665" stroke="#34D399" stroke-width="2" fill="none"/>

  <!-- ── RIGHT SIDE TEXT ── -->
  <text x="760" y="210" fill="#34D399" font-family="Segoe UI,Arial,sans-serif" font-size="28" letter-spacing="8">LANDING PAGES</text>
  <text x="760" y="320" fill="#FFFFFF" font-family="Segoe UI,Arial,sans-serif" font-size="88" font-weight="700">QUI</text>
  <text x="760" y="420" fill="#FFFFFF" font-family="Segoe UI,Arial,sans-serif" font-size="88" font-weight="700">VENDENT</text>
  <text x="760" y="472" fill="#A7C4B5" font-family="Segoe UI,Arial,sans-serif" font-size="28">Promesse · Preuve · CTA · Conversion</text>

  <rect x="760" y="514" width="152" height="52" rx="26" fill="#064E3B" stroke="#10B981"/>
  <text x="794" y="546" fill="#D1FAE5" font-family="Segoe UI,Arial,sans-serif" font-size="22">COPY</text>
  <rect x="930" y="514" width="182" height="52" rx="26" fill="#064E3B" stroke="#10B981"/>
  <text x="964" y="546" fill="#D1FAE5" font-family="Segoe UI,Arial,sans-serif" font-size="22">CONVERSION</text>
  <rect x="1130" y="514" width="120" height="52" rx="26" fill="rgba(235,203,139,.14)" stroke="rgba(235,203,139,.38)"/>
  <text x="1163" y="546" fill="#F6E6BE" font-family="Segoe UI,Arial,sans-serif" font-size="22">49 €</text>

  <rect x="760" y="614" width="680" height="2" fill="#1A4030"/>
  <text x="760" y="672" fill="#EBCB8B" font-family="Segoe UI,Arial,sans-serif" font-size="26">UNE OFFRE WEB COURTE, CLAIRE ET MONNAYABLE</text>
</svg>
