<svg width="1600" height="900" viewBox="0 0 1600 900" fill="none" xmlns="http://www.w3.org/2000/svg">
  <defs>
    <linearGradient id="bg" x1="0" y1="0" x2="1600" y2="900" gradientUnits="userSpaceOnUse">
      <stop stop-color="#08101D"/>
      <stop offset="1" stop-color="#143327"/>
    </linearGradient>
  </defs>
  <rect width="1600" height="900" rx="42" fill="url(#bg)"/>
  <rect x="118" y="140" width="650" height="620" rx="34" fill="#0E1A2D" stroke="#2D4D43"/>
  <rect x="118" y="140" width="650" height="74" rx="34" fill="#13263A"/>
  <circle cx="178" cy="177" r="9" fill="#D96D6D"/>
  <circle cx="208" cy="177" r="9" fill="#E9BF63"/>
  <circle cx="238" cy="177" r="9" fill="#67C191"/>
  <rect x="168" y="254" width="550" height="182" rx="28" fill="#163527"/>
  <rect x="200" y="290" width="270" height="20" rx="10" fill="#F4E7BF"/>
  <rect x="200" y="330" width="210" height="14" rx="7" fill="#D7DFEF" fill-opacity=".42"/>
  <rect x="200" y="370" width="168" height="46" rx="23" fill="#EBCB8B" fill-opacity=".18" stroke="#EBCB8B" stroke-opacity=".4"/>
  <rect x="168" y="470" width="262" height="218" rx="24" fill="#13263A"/>
  <rect x="456" y="470" width="262" height="218" rx="24" fill="#13263A"/>
  <text x="830" y="244" fill="#9CCEB4" font-family="Segoe UI, Arial, sans-serif" font-size="34" letter-spacing="10">LANDING PAGES</text>
  <text x="830" y="352" fill="#FFFFFF" font-family="Segoe UI, Arial, sans-serif" font-size="84" font-weight="700">QUI VENDENT</text>
  <text x="830" y="426" fill="#D9E3F2" font-family="Segoe UI, Arial, sans-serif" font-size="34">PROMESSE, PREUVE, CTA, LIVRAISON</text>
  <rect x="830" y="518" width="204" height="56" rx="28" fill="#183929" stroke="#37644E"/>
  <text x="890" y="554" fill="#DFF4E7" font-family="Segoe UI, Arial, sans-serif" font-size="26">COPY</text>
  <rect x="1058" y="518" width="204" height="56" rx="28" fill="#183929" stroke="#37644E"/>
  <text x="1117" y="554" fill="#DFF4E7" font-family="Segoe UI, Arial, sans-serif" font-size="26">OFFRE</text>
  <rect x="1286" y="518" width="204" height="56" rx="28" fill="#EBCB8B" fill-opacity=".14" stroke="#EBCB8B" stroke-opacity=".38"/>
  <text x="1334" y="554" fill="#F6E6BE" font-family="Segoe UI, Arial, sans-serif" font-size="26">CONVERSION</text>
  <rect x="830" y="628" width="660" height="2" fill="#35584B"/>
  <text x="830" y="700" fill="#EBCB8B" font-family="Segoe UI, Arial, sans-serif" font-size="30">UNE OFFRE WEB COURTE, CLAIRE ET MONNAYABLE</text>
</svg>
