<svg width="1600" height="900" viewBox="0 0 1600 900" fill="none" xmlns="http://www.w3.org/2000/svg">
  <defs>
    <linearGradient id="bg" x1="0" y1="0" x2="1600" y2="900" gradientUnits="userSpaceOnUse">
      <stop stop-color="#09111F"/>
      <stop offset="1" stop-color="#0C1A30"/>
    </linearGradient>
  </defs>
  <rect width="1600" height="900" rx="42" fill="url(#bg)"/>
  <circle cx="1340" cy="180" r="220" fill="#0A1628"/>
  <circle cx="1280" cy="150" r="130" fill="#0E1F3A"/>
  <!-- Microsoft 365 grid left panel -->
  <rect x="114" y="146" width="620" height="608" rx="32" fill="#0B1422" stroke="#1E40AF"/>
  <rect x="160" y="192" width="528" height="108" rx="24" fill="#122040"/>
  <!-- M365 colored squares grid -->
  <rect x="190" y="340" width="110" height="110" rx="18" fill="#D73B2E" fill-opacity=".85"/>
  <text x="224" y="408" fill="white" font-family="Segoe UI, Arial, sans-serif" font-size="44" font-weight="700">W</text>
  <rect x="320" y="340" width="110" height="110" rx="18" fill="#185ABD" fill-opacity=".85"/>
  <text x="356" y="408" fill="white" font-family="Segoe UI, Arial, sans-serif" font-size="44" font-weight="700">T</text>
  <rect x="450" y="340" width="110" height="110" rx="18" fill="#107C41" fill-opacity=".85"/>
  <text x="486" y="408" fill="white" font-family="Segoe UI, Arial, sans-serif" font-size="44" font-weight="700">X</text>
  <rect x="580" y="340" width="110" height="110" rx="18" fill="#D24726" fill-opacity=".85"/>
  <text x="614" y="408" fill="white" font-family="Segoe UI, Arial, sans-serif" font-size="44" font-weight="700">O</text>
  <!-- Second row -->
  <rect x="190" y="470" width="110" height="110" rx="18" fill="#0F6CBD" fill-opacity=".7"/>
  <text x="208" y="540" fill="white" font-family="Segoe UI, Arial, sans-serif" font-size="30" font-weight="700">AAD</text>
  <rect x="320" y="470" width="110" height="110" rx="18" fill="#5059C9" fill-opacity=".7"/>
  <text x="342" y="540" fill="white" font-family="Segoe UI, Arial, sans-serif" font-size="30" font-weight="700">SP</text>
  <rect x="450" y="470" width="110" height="110" rx="18" fill="#0078D4" fill-opacity=".7"/>
  <text x="472" y="540" fill="white" font-family="Segoe UI, Arial, sans-serif" font-size="30" font-weight="700">EXO</text>
  <rect x="580" y="470" width="110" height="110" rx="18" fill="#243A5E" fill-opacity=".7" stroke="#3B82F6" stroke-width="1"/>
  <text x="598" y="540" fill="#93C5FD" font-family="Segoe UI, Arial, sans-serif" font-size="30" font-weight="700">+</text>
  <!-- Bottom lines -->
  <rect x="160" y="612" width="340" height="12" rx="6" fill="#1E40AF" fill-opacity=".5"/>
  <rect x="160" y="636" width="260" height="12" rx="6" fill="#1E40AF" fill-opacity=".35"/>
  <rect x="160" y="660" width="300" height="12" rx="6" fill="#1E40AF" fill-opacity=".25"/>
  <!-- Right side text -->
  <text x="800" y="240" fill="#60A5FA" font-family="Segoe UI, Arial, sans-serif" font-size="34" letter-spacing="10">MICROSOFT 365 PME</text>
  <text x="800" y="350" fill="#FFFFFF" font-family="Segoe UI, Arial, sans-serif" font-size="82" font-weight="700">DÉPLOYER ET</text>
  <text x="800" y="448" fill="#FFFFFF" font-family="Segoe UI, Arial, sans-serif" font-size="82" font-weight="700">ADMINISTRER</text>
  <text x="800" y="524" fill="#D9E3F2" font-family="Segoe UI, Arial, sans-serif" font-size="34">TENANT, AZURE AD, TEAMS, SHAREPOINT, CSP</text>
  <rect x="800" y="570" width="196" height="56" rx="28" fill="#1E3A8A" stroke="#3B82F6"/>
  <text x="830" y="606" fill="#BFDBFE" font-family="Segoe UI, Arial, sans-serif" font-size="26">AZURE AD</text>
  <rect x="1020" y="570" width="210" height="56" rx="28" fill="#1E3A8A" stroke="#3B82F6"/>
  <text x="1058" y="606" fill="#BFDBFE" font-family="Segoe UI, Arial, sans-serif" font-size="26">TENANT M365</text>
  <rect x="1256" y="570" width="166" height="56" rx="28" fill="#EBCB8B" fill-opacity=".14" stroke="#EBCB8B" stroke-opacity=".38"/>
  <text x="1304" y="606" fill="#F6E6BE" font-family="Segoe UI, Arial, sans-serif" font-size="26">62 €</text>
  <rect x="800" y="672" width="702" height="2" fill="#1E40AF"/>
  <text x="800" y="740" fill="#EBCB8B" font-family="Segoe UI, Arial, sans-serif" font-size="30">DE L'AUDIT AU FORFAIT CSP EN UNE MISSION</text>
</svg>
