<svg width="1600" height="900" viewBox="0 0 1600 900" fill="none" xmlns="http://www.w3.org/2000/svg">
  <rect width="1600" height="900" rx="42" fill="#08111D"/>
  <rect x="106" y="124" width="620" height="652" rx="34" fill="#0D1728" stroke="#324361"/>
  <path d="M192 636C290 540 358 500 448 466C512 442 590 420 640 348" stroke="#38C793" stroke-width="10" stroke-linecap="round"/>
  <path d="M612 346L624 292L670 322" stroke="#38C793" stroke-width="10" stroke-linecap="round" stroke-linejoin="round"/>
  <rect x="168" y="188" width="500" height="86" rx="24" fill="#132136"/>
  <rect x="182" y="502" width="168" height="92" rx="26" fill="#153029" stroke="#38C793"/>
  <rect x="382" y="454" width="168" height="140" rx="26" fill="#18253A" stroke="#5A6B87"/>
  <rect x="582" y="396" width="88" height="198" rx="26" fill="#2D2415" stroke="#DAB15F"/>
  <text x="810" y="166" fill="#9DE5C8" font-family="Segoe UI, Arial" font-size="28" letter-spacing="8">RÉCURRENCE</text>
  <text x="810" y="278" fill="#F6F1E8" font-family="Georgia, serif" font-size="80" font-weight="700">OFFRE MENSUELLE</text>
  <text x="810" y="366" fill="#F6F1E8" font-family="Georgia, serif" font-size="80" font-weight="700">POUR PME</text>
  <text x="810" y="440" fill="#B8C6DC" font-family="Segoe UI, Arial" font-size="34">Forfait, contrat, rapport mensuel, renouvellement</text>
  <rect x="810" y="520" width="220" height="58" rx="29" fill="#173029" stroke="#38C793"/>
  <text x="868" y="558" fill="#B8F2DA" font-family="Segoe UI, Arial" font-size="26">69 €</text>
</svg>