<svg width="1600" height="900" viewBox="0 0 1600 900" fill="none" xmlns="http://www.w3.org/2000/svg">
  <defs>
    <linearGradient id="bg" x1="0" y1="0" x2="1600" y2="900" gradientUnits="userSpaceOnUse">
      <stop stop-color="#07111E"/>
      <stop offset="1" stop-color="#123B3F"/>
    </linearGradient>
  </defs>
  <rect width="1600" height="900" rx="42" fill="url(#bg)"/>
  <rect x="112" y="138" width="646" height="620" rx="32" fill="#0E1A2D" stroke="#2C5E63"/>
  <rect x="160" y="188" width="550" height="122" rx="24" fill="#163237"/>
  <rect x="160" y="342" width="170" height="120" rx="22" fill="#18323E"/>
  <rect x="358" y="342" width="170" height="120" rx="22" fill="#18323E"/>
  <rect x="556" y="342" width="154" height="120" rx="22" fill="#18323E"/>
  <rect x="160" y="494" width="550" height="214" rx="24" fill="#18323E"/>
  <path d="M250 402H438" stroke="#EBCB8B" stroke-width="12" stroke-linecap="round"/>
  <path d="M448 402H618" stroke="#72D0C4" stroke-width="12" stroke-linecap="round"/>
  <path d="M438 402L456 402" stroke="#FFFFFF" stroke-width="8" stroke-linecap="round"/>
  <text x="820" y="244" fill="#8DE0D4" font-family="Segoe UI, Arial, sans-serif" font-size="34" letter-spacing="10">OUTILS PME / GLPI</text>
  <text x="820" y="352" fill="#FFFFFF" font-family="Segoe UI, Arial, sans-serif" font-size="82" font-weight="700">SUPPORT STRUCTURE</text>
  <text x="820" y="426" fill="#D9E3F2" font-family="Segoe UI, Arial, sans-serif" font-size="34">TICKETS, FLUX, DEMANDES, TABLEAUX DE BORD</text>
  <rect x="820" y="520" width="198" height="56" rx="28" fill="#19434A" stroke="#3E7F86"/>
  <text x="874" y="556" fill="#DDF8F4" font-family="Segoe UI, Arial, sans-serif" font-size="26">GLPI</text>
  <rect x="1046" y="520" width="218" height="56" rx="28" fill="#19434A" stroke="#3E7F86"/>
  <text x="1106" y="556" fill="#DDF8F4" font-family="Segoe UI, Arial, sans-serif" font-size="26">SUPPORT</text>
  <rect x="1288" y="520" width="212" height="56" rx="28" fill="#EBCB8B" fill-opacity=".14" stroke="#EBCB8B" stroke-opacity=".38"/>
  <text x="1332" y="556" fill="#F6E6BE" font-family="Segoe UI, Arial, sans-serif" font-size="26">PROCESS</text>
  <rect x="820" y="628" width="680" height="2" fill="#3B6A70"/>
  <text x="820" y="700" fill="#EBCB8B" font-family="Segoe UI, Arial, sans-serif" font-size="30">UN BESOIN INTERNE DEVENU OFFRE FACTURABLE</text>
</svg>
